<svg xmlns="http://www.w3.org/2000/svg" fill="currentColor" aria-hidden="true" viewBox="4 258 2164 255"><path fill-rule="evenodd" d="M880.3 259c-8.4 1.7-13.4 4.9-23.6 14.7-5.6 5.4-11.6 10.7-13.2 11.9-2.9 2-3 2.3-1.9 6.3 1 3.8.9 4.5-1.6 8.4-10.4 16.4-31 23.6-80.5 28.2-29.7 2.8-38.2 5.3-69 20.5-14.9 7.4-24.7 11.6-30.5 13.1-20.5 5.2-33-1.6-33-18 0-4.5-.3-5.1-2.4-5.7-9.2-2.3-15.6 12.2-11.2 25.3 2 6.2 9.1 13.3 16.6 16.7 11.4 5.3 32.1 2.6 50.3-6.5 3.1-1.6 5.7-2.6 5.7-2.2-.2 3.7-8.3 33.1-10.4 37.6-2.9 6.1-9.2 11.7-18.6 16.5-3.8 2-4.5 2.1-4.8.7-.4-1.8-2.2-1-2.2.9 0 .7-2 3.3-4.4 5.7-3.7 3.8-4.5 5.2-5.1 9.9-1.1 8.7-6.4 37.2-7 37.8-.3.3-1.5-.4-2.8-1.6s-2.6-2.2-3-2.2c-1.3 0-.6 6.5 1.2 11.8l1.8 5.2h-2.9c-2.4 0-3.2-.6-4.1-3-1.4-3.6-1.7-3.7-4.7-.5-1.3 1.4-3.2 2.5-4.2 2.5-2.3 0-1.1-3 4.4-11.3 3-4.5 3.4-5.6 1.9-4.7-3 1.5-2.7-.5.9-7.8 5.5-11.1 3.3-13.6-5.4-6-3.1 2.8-6.6 6.8-7.7 9-3 5.8-3.1 4.4-.4-5.7 4.2-15.8 3.9-15 7.1-15.3 3.3-.4 8.8-4.3 10.5-7.3 2.2-4.1-3.5-6.7-7.3-3.2-1 .9-2 1.4-2.3 1.1-.9-.9 1.5-6.1 3.9-8.3 2.9-2.7 5.3-13.3 3.7-16.4-1.8-3.2-3.2-2.6-9 3.6l-5.4 5.7.6 8.8c.6 9.8-.4 12-2.5 5.6-1.7-5-4.2-5.7-4.6-1.3-.2 2.2.6 4.4 2.9 7.4l3.1 4.4-1.8 5.6c-1 3.1-2.7 7-3.9 8.6l-2 3-.7-7c-.3-3.8-1.4-8.8-2.3-11-2-4.5-2.4-4.1-4.5 4.4-.6 2.3-1.3 4.1-1.5 3.9s-1.1-4.6-1.9-9.8c-1.5-9.1-1.5-9.8.5-17.7 2.5-9.8 1.9-14-1.2-8-1.1 2-2.4 3.7-2.9 3.7-1.7 0-1.1-3.3 1.5-8.4s3-7.2 1.8-10.1c-.5-1.5-.8-1.5-2.5.6l-1.8 2.4.2-6.2c.2-4.7-.1-6.6-1.5-8-.9-1.1-1.7-2.8-1.7-3.9-.1-3.3-8.2-14.5-9.3-12.7-1.5 2.5-1.7 11.1-.3 15 .8 2.2 1.3 4.3 1 4.6-.2.2.3 2.3 1.1 4.7 1.9 5.3 1.9 5.5 0 4-3.8-3.1-2.9 3.8.9 7.3 3.9 3.6 7.8 14.8 4.1 11.7-.8-.7-1.5-1-1.5-.6s-1.1-.1-2.5-1-2.8-1.4-3.2-1c-1.1 1.1 1.6 5.6 4 6.5 5.3 2 7.4 7.7 8.7 23.1.8 10.2.7 13.3-.3 11.9-.7-.8-4.9-12.5-5.9-16.4-.6-2.2-2.5-5.8-4.2-7.9-2.9-3.7-3.1-3.8-3.6-1.7-.7 3.1-2.2 2.9-4-.8-1.4-2.9-3-4.1-3-2.2 0 2.7 6.4 25.9 8 29.2 2.8 5.4 2.4 7-.8 3.3-1.5-1.7-3.9-3.8-5.4-4.8L564 464l.5 3.2c.3 1.8.9 5 1.4 7.1.7 3.1.7 3.6-.4 2.7-.7-.6-1.6-2.6-1.9-4.5-.7-3.8-4.9-7.7-5.4-5.1-.2.7.6 2.9 1.7 4.7 2.7 4.4 2.9 6.9.4 4.7-2.7-2.3-6.7-.6-5.8 2.4.4 1.3 1.6 3.1 2.6 4 1.8 1.5 4.4 7.8 3.4 7.8-.3 0-1.2-1.4-2-3.1-.9-1.7-1.9-2.8-2.2-2.5-.4.3-1.1.2-1.8-.4s-1.7.2-3 2.8c-1.1 2-2 3.8-2.1 4s-1.4.5-2.8.8l-2.7.5 2-2.8c2.4-3.3 4.4-11.4 3.1-12.7-.5-.5-.6-1.5-.3-2.2.3-.8.2-1.4-.1-1.4-1.4 0-11.2 5.4-13.3 7.3-1.3 1.1-3.4 2.1-4.8 2.3-2.5.3-2.5.2-2.5-7v-7.3l4.8-1.8c5.6-2.2 14.9-11.1 17.7-17 4.9-10.4-.2-16.9-9.1-11.4-4.1 2.5-10.8 10-12.6 14-.7 1.6-1.6 2.9-2 2.9-1 0-1-9.1-.2-18.2l.7-6.6 4.6-1.8c2.9-1.1 6.9-4.1 10.9-8 8.7-8.7 11.5-16.1 7.4-19.7-5.1-4.6-15 1.2-20.6 12-3.1 6.1-3.6 4.9-3.6-8.6V392h3.9c4.7 0 7.1-2.6 7.1-7.6 0-2.7.4-3.2 3.1-3.8 7.6-1.5 11.8-11.7 6.9-16.6-2.3-2.3-9.7-2.8-13.2-.9-1.9 1-2 .9-1.4-1.2 1.2-4.1 1.9-13.6 1.2-16.3-1.6-6.5-8.3-8.6-12.7-4-2.2 2.3-2.4 3.4-2.4 11.5 0 4.9-.1 8.9-.1 8.9-.1 0-1.5-.7-3-1.5-1.6-.8-4.8-1.5-7.1-1.5-10 0-11.5 13.5-1.9 17.5 2.7 1.2 3 1.7 2.8 4.8-.4 4.6 3.7 9.7 7.9 9.7h2.9v14c0 7.7-.2 14-.4 14s-1.6-2-3.1-4.5c-7.9-13.6-19.8-19.5-21.9-11-2 8 10.3 24.8 21 28.7 3 1 3.2 1.4 3.8 7.7.9 10 .7 20.1-.4 20.1-.5 0-1-.5-1-1.2 0-.6-1.8-3.5-4-6.5-8.2-10.7-17.5-13.7-19.4-6.1-1.5 6 3.6 15.3 12.4 22.4 7.3 5.9 10.6 9.9 9 10.9-.6.4-2.4-.3-4-1.5a17 17 0 0 0-6.6-2.7c-3.4-.6-3.6-.5-2.9 1.6.4 1.2.8 4.1 1 6.5.1 2.3.8 5.3 1.5 6.7 1.2 2.2 1.2 2.3-.4 1-1-.8-2.9-3.6-4.2-6.3-2.8-5.5-4.9-6.4-4.2-1.8.4 2.6.2 2.9-1.5 2.4-1.4-.4-2.6.1-3.8 1.7l-1.9 2.4v-2.2c0-1.2.6-4.2 1.4-6.5 4.2-12.8 2.4-15.2-4.4-6.2-2.3 3-4.3 5.4-4.5 5.2s.3-3.2 1-6.8c.8-3.6 1.4-9.8 1.5-13.9 0-8.9-1-8.6-6.8 2-4 7.4-4.7 8-5.5 4.8-1.6-6.1.4-12.2 6.5-19.3 6.1-7 7.2-10.7 3.5-11.4-2.3-.5-5.1 2-7.2 6.4-2.4 5.1-3.5 4.1-3.4-2.8.1-5.6 1.5-13.5 1.8-9.9.1 1.1.5 1.1 1.9-.2 1-1 2.3-1.7 2.9-1.7 1.7 0 2.5-3.1 1.2-4.6-.6-.8-1.5-1.2-1.9-.9-.5.3-.4-1.1.2-3.1 1.2-4.6.5-6.4-2.7-6.4-2.3 0-2.5-.3-2.5-4.8 0-8-5.3-10.7-8-4.1-.7 1.6-1 4.7-.7 6.9.5 3.6.3 3.9-1.3 3-5.5-3-5.6 2.6-.1 7.8 2.9 2.8 4 4.8 4.5 8 .8 5.1.4 5.2-4.6.6-4.6-4.2-6.2-4-6.6.7-.4 4.3 2.5 8.3 7.4 10.4 2.7 1.1 3.3 1.9 3.2 3.9l-.2 2.4-3.1-2.4c-1.6-1.3-3.8-3-4.7-3.9-4.9-4.3-2.3 1.8 3.4 8.1 5.5 5.9 8.1 12.5 6.9 17l-.7 2.8-1.3-3.2c-1.5-3.7-11.3-13.2-13.5-13.2-1.9 0-2.2 4-.4 5.8.6.6 1.1 2.8 1 4.8-.1 2.4 1.2 6.4 4 12 2.2 4.6 3.9 8.7 3.6 8.9-1.2 1.3-4.2-1.2-7.3-6.1-3.7-5.8-5-6.5-6-3.4-.3 1.1-1.1 2-1.6 2-1.2 0-1.2-1.7.1-2.5 1.1-.7 1.3-6.1.4-11.7-1-5.9-1.5-5.4-6.8 6-3.5 7.4-4.4 6.8-5.3-3.8-.6-6.7-.5-7 1.6-7 1.2 0 2.5-.8 2.8-1.7.4-1 1.9-3.3 3.5-5.1 4.7-5.5 3.2-12.1-2.1-9.2-2 1-2 .9-1.5-3.5.6-3.8.4-4.6-1.2-5.1-1.1-.4-3.1-2.1-4.5-3.8-2.2-2.6-2.9-2.9-4.2-1.8-2.5 2.1-4.8 9.9-3.7 12.8 1.5 3.7 1.3 4.2-1.5 3.6-1.4-.2-3.2.1-4 .8-4 3.3.6 12.4 7 13.6 3.7.7 4.5 2.2 4.5 9.2 0 4.7-.8 5.2-3.6 2.1-2.6-2.9-7.4-5.3-8.5-4.2-.8.8 0 2.4 4.5 8.7 1 1.5 1.6 2.9 1.4 3.2-.7.6-5.8-1.7-5.8-2.7 0-.4-.7-1-1.6-1.3-1.6-.6-1.6 1.8.2 8.9.4 1.7.1 1.6-2-.7s-2.6-2.5-3.7-1.2c-.9 1.1-.9 2 0 4.1 1.4 3.1.7 4.1-1.9 2.5-2.7-1.7-2.8-1.7-4.1 2.8-.7 2.1-1.6 3.7-2.1 3.4s-1.4-.2-2.1.4c-.7.5-3.1.7-5.4.4l-4.3-.4 4.5-5.7c11.3-14.4 16.4-33.1 9-33.1-3.6 0-15.8 11.9-20.1 19.7-2 3.4-3.7 6.3-3.9 6.3-1.2 0 4.2-32.3 7.2-43.1l1.6-5.7 2.6 1.6c3.3 1.9 8.8 1 12.6-2 2.5-1.9 2.7-2.6 2.3-7.4l-.5-5.2 3.9-1.5c6.3-2.5 7.8-10.2 3.1-15.7-2.5-3-3-3.2-7.9-2.8l-5.2.4.5-3.6c.8-5.5-1.8-9.6-6.8-11.2-6.9-2-11.9 2.3-11.9 10.4v3.6l-3.4-1c-6.4-2-12.6 2.8-12.6 9.6 0 3.1 4.2 8.2 7.5 9 2.4.6 2.5.7 1 3.6-.8 1.6-1.5 4-1.5 5.4 0 3.3 5.5 7.9 8.7 7.3 1.7-.3 2.3 0 2.3 1.4 0 2.2-5.7 27.9-6.3 28.6-.3.2-1-1.7-1.5-4.4-1.6-7.2-4.9-14.4-8.5-18-4.1-4.3-5.4-4.1-6.7.8-2.4 8.8 1.8 21.9 9.9 31.1 3.9 4.4 5.3 8.9 3.2 10.2-.5.3-1.2 3.1-1.6 6.1-.3 3-1 5.5-1.5 5.5-1.2 0-5-5.5-5-7.2 0-1.8-2-3.8-3.7-3.8-.7 0-1.3.6-1.3 1.3 0 1.6-4.2 5.7-5.8 5.7-2.1 0-1.3-3.3 1.8-7.9 3.3-4.9 3.7-7.3 1.5-9.1-.8-.7-1.2-1.7-.8-2.3s0-.8-1-.4c-1.4.5-1.7 0-1.7-3.1 0-2-.7-4.6-1.5-5.6-1.2-1.6-1.5-1.7-1.5-.4 0 .9-.9 2.6-2 3.9l-1.9 2.4-.1-2.5c0-1.4.7-5.3 1.6-8.5 1.5-6 1.2-19.9-.5-20.9-2.3-1.5-17.9 23.2-18.2 28.9-.4 6.9-1.8-8.4-1.8-20.1l-.1-14.1 3.8-2.6c7.4-5 15.9-14.3 17.6-19.3 2.6-7.8 1.6-16.4-2.1-16.4-4.6 0-12.3 8.4-16.8 18.2l-2.4 5.3v-32l4.2-2.1c10.2-5 12.5-21.4 2.4-17.6-3.8 1.4-3.9 1.4-2.7-2.9 2.4-8.1-.4-14.9-5.9-14.9-5.4 0-8.2 6.5-6.3 14.8.9 3.9.8 4.3-.6 3.6-6.1-2.5-9.2-1.1-9.2 4.3 0 5.9 4.2 11.7 9.1 12.8l2.9.7.1 11.1c0 6.2.3 14.2.5 18 .4 6.8-.9 9.3-2.2 4C320 404.2 310.7 394 304 394c-3.4 0-4.2.4-5 2.5-3.1 8 6.3 24 18.4 31.5 6.7 4.1 6.8 4.4 6.4 18.5l-.3 11-3.2-5.6c-3.5-6.3-10.4-12.5-15.3-13.9l-3.2-.9.7 4.7c1 6.5 3.6 13 9.3 23.1 4 7.2 4.9 9.6 5.1 14.4.1 3.1-.1 5.7-.5 5.7-.3 0-2.2-1.3-4.1-3-1.8-1.6-4-3-4.8-3-.7 0-1.8-1.2-2.3-2.7-.9-2.8-.9-2.8-1.7 1.2-.4 2.2-1.4 5.1-2.1 6.5-1.3 2.4-1.3 2.4-1.4.3 0-1.2.7-4.8 1.5-7.9 1.8-7.1 1.2-12.2-2.6-20-1.7-3.3-3.3-8.2-3.7-10.9-.6-4.4-3.2-7.7-3.2-4.1 0 3.4-1.8 1.4-2.4-2.6-.9-5.5-2.7-11.8-3.5-11.8-.3 0-1.5 2.8-2.5 6.3-2.7 8.5-3.3 8.9-4.1 2.1-.4-3.3-1.1-6.3-1.5-6.9-2.4-3.5-6.9-20.4-7.1-26.6l-.1-4.4-.9 5c-1.3 7.3-1.3 31.4 0 35.4 2 6.5.2 4.4-4.4-4.9l-4.5-9.4v11.2c0 10-.2 11.1-1.7 10.5-1.3-.5-1.5-.2-.9 1.8.4 1.3 1.1 5.1 1.6 8.5s1.2 6.8 1.6 7.8c1.5 3.9-1.8 1.1-5.2-4.5-2.8-4.7-3.9-5.8-4.5-4.6-1 1.7 1.6 14.6 3.8 19 1.9 3.8 1.1 3.4-4.1-2-5.5-5.8-5.9-4.5-2.2 7.3l2.5 7.7-3.8-3.7c-4.3-4.2-5.1-4.4-5.1-1.3 0 2.4-6.8 10.7-8.8 10.7-.8 0-.2-1.9 1.4-5.2 3.3-6.5 4.6-17.4 2.2-18.3-4-1.5-13.6 5.4-19.2 13.9l-2.6 3.9v-25.1l5.3-3c8.6-4.9 16-12.3 20.1-20.1 11.2-21.4-1.1-28.9-16.2-9.8-2.7 3.4-5.8 7.9-6.9 10.1l-2 3.9-.6-10.8c-.9-13.5-.9-26.8-.1-28.9.3-.9 1.6-1.6 2.8-1.6 1.3 0 5-1.4 8.4-3.1 12-5.9 22.1-20.8 20.9-30.4-1.8-13.1-19.2-4.9-28.9 13.6l-3.3 6.4-.3-13.5c-.2-7.4 0-17.2.3-21.8.7-7.8.8-8.2 2.4-6.8 2.4 2.2 9.4 2.1 11.3-.1 2.3-2.8 2.8-6.3 1.3-9.9-1.2-3-1.2-3.3.9-3.8 7.7-1.9 10.3-11.6 4.7-17-2.6-2.5-3.6-2.8-7.4-2.4l-4.4.5.5-6.2c.5-7-1.1-10.5-5.9-13.1-8.1-4.2-15.9.5-15.9 9.6 0 2.8.5 6 1.1 7.1 1 2 .9 2-2 .5-5.8-3.1-10.5-1.6-12.5 3.8-1 2.8 1.2 8.2 4 10.1 2.5 1.6 2.5 1.7.8 3.6-1 1.1-1.9 4.1-2.2 7.3-.4 4.8-.1 5.7 2.1 8 2.9 2.9 10.2 3.7 12.5 1.4.6-.6 1.4-.9 1.7-.6s.4 9.9.3 21.4l-.3 20.9-3.4-7c-6.5-13.1-18.6-22.5-25.9-19.9-4 1.4-4.4 10.4-.8 17.8 5.3 10.7 13.6 18.1 27.6 24.6 1.8.8 2.6 18.4 1.5 31l-.7 7.5-2.8-6.2c-3.4-7.6-10.8-15.7-17.2-18.9-6-3-7.4-3-9.4.1-6.1 9.3 6.9 32.8 23.7 43.2l5.9 3.6v9.6l-.1 9.6-1.9-3.5c-2.5-4.8-6.6-8.5-13.2-11.9l-5.7-2.9-1.6 2.4c-3.1 4.8-.3 15.7 6.2 24.2l2.6 3.4-2.4-.7c-1.3-.4-3.6-2.1-5.1-3.7-1.7-1.8-3.4-2.8-4.3-2.4-1.2.4-1.5-.3-1.5-3s-.5-3.7-1.9-4.1c-2.3-.6-4.6-7.2-3.8-11.2.8-3.9-1.4-4.2-3.3-.6-1 1.9-1.6 2.2-2.2 1.3-.5-.9-.8-.5-.8 1.2 0 1.4-.7 3.6-1.5 5-1.4 2.5-1.4 2.4-1.5-1.9 0-2.5.7-8.2 1.6-12.8.8-4.6 1.4-9.4 1.1-10.6-.3-2.1-.4-2.1-1.5.5-.6 1.4-1.6 2.9-2.2 3.3-.6.3-2.3 3-3.7 5.8-3.7 7.1-4.2 3.5-.8-5.6 2.8-7.6 4.5-19.6 2.3-16.3-.7 1.1-2.7 3.6-4.5 5.5l-3.2 3.6-.1-4.6c0-3.3.6-5.4 2.2-7.4 2.2-2.8 3.9-12.5 2.1-12.5-.5 0-1-2.6-1-5.7-.1-9.9-3.3-25.3-5.2-25.3-.9 0-4.6 11.6-6.2 19.7-.8 4.6-.9 7.4-.1 10.5 2.9 11.5 1.8 13.7-4 8.1-2.5-2.4-2.8-2.5-2.8-.7 0 1-.7 3.1-1.4 4.6-.8 1.6-1.8 7.6-2.2 14.2-.6 11.3-.7 11.4-2.5 9.3-2.4-2.9-4.2-1.2-4.5 4.4-.2 4.2-1.8 6.3-4.3 5.4-1.4-.5-1.1 9.3.5 16l.7 3-2.2-1.9c-1.1-1.1-2.1-3-2.1-4.4 0-2.4-.1-2.4-2.5-.8s-2.5 1.6-2.5-.9c0-2.9-3.1-4.8-3.9-2.4-.5 1.6-7 8.4-7.5 7.8-.2-.2-.7-3.9-1.1-8.1l-.7-7.8 2.9-1c12.9-4.8 21.3-13.9 21.3-23.3 0-5.1-1.3-6.7-5.6-6.7-4.2 0-7.2 2.6-12.5 10.5-2.9 4.4-4.5 6.1-5.1 5.3-.4-.7-.8-6.8-.8-13.4v-12.2l4.3-1c5.5-1.4 15.7-8 19-12.3 6.6-8.8 9-22.2 4.5-25.3-3.1-2.2-5.9-2-9.9.7-3.9 2.6-13.3 13.9-15.1 18.2l-1.3 3-.6-3c-.4-1.6-.7-10.3-.8-19.3l-.1-16.3 3.5.7c7.6 1.4 15.5-7.8 15.5-18.2 0-5.5-2.9-7.8-9-7.2-3.8.3-4.1.2-3.5-1.7.4-1.1.9-4.5 1.2-7.5.5-5 .2-5.9-2.2-8.8-5.6-6.7-14.5-2.2-14.5 7.2v4.3l-4.8-.4c-6.7-.7-8.6 1.6-8 9.3.6 7.5 4 10.9 10 10.1l3.8-.5v5.3c0 3 .4 5.6.9 5.9 1 .7 2 19.4 1.3 26.4l-.5 5.3-2.2-5.4c-6.4-15.9-18.5-25.8-24-19.7-6.1 6.7 5.1 29.1 20.5 40.8l4.9 3.7v11.8c.1 6.4-.1 11.7-.4 11.7-.2 0-1.3-1.7-2.4-3.7C88.6 431.4 76.6 421 71 421c-3.6 0-5 1.7-5 6.2 0 9.4 12 23.4 25.8 30.1l4.2 2.1v24l-3.7-3.5c-4.2-4-10.6-8.9-11.6-8.9-1.1 0-.8 11.8.3 12.5 1.6 1 7.2 9.6 6.6 10.2-1.1 1.1-5.6-2.8-5.6-4.9 0-1.2-1.2-3.9-2.7-6.1-2.7-3.9-3.2-7.6-1.8-12.9.6-2.4.4-2.8-1.3-2.8-1.3 0-2.1.9-2.6 2.8-.6 2.8-6.4 12.7-7.1 12-.2-.2-.1-1.9.3-3.8.9-4.2.3-17-.7-17-1.1 0-4.6 6.6-7.1 13.2-1.2 3.2-2.5 6-3.1 6.3-.9.6.2-3 2.1-6.5 3-5.6 3.2-25.5.3-34-.6-2-5.8 9.5-7.5 16.5-.7 3-1.5 5.5-1.9 5.5-.8 0-1.9-5.2-1.9-9 0-1.5-.7-4.1-1.5-5.6-2.4-4.6-1.8-8.9 2.4-17.2 3.5-6.9 3.8-8.4 3.6-14.5-.3-10.1-2.7-11.2-7.1-3.2-3.4 6.3-4.4 3.4-2.3-6.6.9-4 .8-6.6-.1-10.6-1.1-5-5-11.3-7.1-11.3-1.4 0-3.9 5.7-3.9 9 0 1.6-.4 3-1 3-1.5 0-1.2 4.2.4 6.5.7 1.1 1.7 3 2.1 4.3.7 2.3.6 2.3-2.4.8-4.2-2.2-4.8-2-5.3 1.5-.8 5.1 3.8 16 9.3 22.2 5.2 5.9 6.2 8.8 7.3 21.2.7 7.7-.6 17.5-1.8 14-5.1-14.4-13-27.3-16.8-27.5-1.4 0-.9 18.6.6 22.8 1.4 3.8 1.4 4-1 5.1-1.7.7-2.4.7-2.4 0 0-.6-1.1-2.4-2.5-4.1-1.4-1.6-2.5-3.5-2.5-4.1 0-.7-.9-2.3-2-3.7l-1.9-2.5.5 3c1 5.8 3.7 13.1 6.9 18.5 3.2 5.3 5.2 11 3.9 11-.7 0-5.9-4.1-10.1-7.8l-2.6-2.4.7 6.1c.4 3.4 1.3 7.6 2.1 9.5 1.4 3.2 1.3 3.4-.8 4-1.2.3-3.4.6-4.9.6H4v16.7l5.8.6c7.5.8 2150.7.9 2155 .1l3.2-.6v-8.3c0-9-.3-9.5-6-9.5h-2.8l2.4-5.1c1.4-2.8 2.4-6.1 2.2-7.2-.3-2.1-.4-2-3 .8l-2.8 3v-2.8c0-1.5.7-4.2 1.7-6 1.3-2.6 4.2-11.9 4.3-13.7 0-1.1-4.8-6-5.9-6-.7 0-1.8 1.5-2.6 3.3-.8 1.9-2.1 3.9-2.9 4.7-.9.7-1.6 1.8-1.6 2.5 0 .6-.8 2.1-1.7 3.3-1 1.1-2.4 2.9-3.1 3.9-.9 1.3-1.4 1.4-1.8.6-1-2.3-2.3-1.3-3 2.2-.7 3.9-2.1 5.4-3 3.1-.8-2.1-3.2-2.7-5.4-1.3-2.5 1.5-2.5 2.2.2 4.6 1.8 1.7 1.9 2.4 1 4.3-.6 1.3-1.1 1.8-1.1 1.1-.1-.7-.8-1-1.8-.6-1.4.5-1.5.1-1-3.2.5-2.9.3-3.5-.5-2.7-1.8 1.8-3.8 1.4-3.8-.8 0-1.2 1.7-3.2 4.2-5 10.3-7.5 17.1-18.4 18.4-29.6 1.7-14.1-13.4-7.3-21.2 9.6-1.5 3.3-3.1 6-3.4 6-1 0-1.7-15-1.2-25.6l.4-8.9 4.1-2c9.6-4.7 18.5-16.8 19.5-26.5 1.3-13.4-14.5-6.8-21 8.8-3 7.2-3.6 5.2-3.7-11.8-.1-14.7.1-15.4 4.1-16.4 4.5-1 8.2-7 8.3-13 0-4.9-.1-5.1-2.8-5.4-1.6-.2-4 .4-5.4 1.3-2.5 1.7-2.6 1.7-2-.6 2.6-10.4 1.5-16.4-3.1-17.6-6.4-1.6-10 7.2-6.6 16.1.6 1.6.4 1.7-1.4.7-4.8-2.6-8.2-.4-8.2 5.4 0 5 4.9 11.5 9.8 13 2.2.6 2.2.9 2.2 16.8l-.1 16.2-3.1-6.4c-5.4-11.3-13.9-17.8-18.8-14.4-6.1 4.3 4.8 24.4 17.4 32.3l3.3 2 .6 10.7c.4 6 .3 12.4-.1 14.3l-.8 3.5-1.3-3.8c-3-8.7-14-19.7-20-19.7-4.7 0-4 10.7 1.3 18.4 4.7 6.8 12.5 14.7 17 17.1l3.6 2v7.2c0 4-.4 7.3-.9 7.3s-3.9-2.9-7.7-6.4c-7.8-7.1-13.1-10.3-14.6-8.8-1.7 1.7 1.1 13.6 4.3 18.7 1.6 2.5 2.6 4.5 2.3 4.5-2.1 0-10.4-6.8-10.4-8.5 0-.6-.9-2.8-2-4.9-1.4-2.9-1.8-5-1.3-8.4.8-5.6-.8-5.4-5.6.9-4.2 5.5-5.6 5.6-5.5.4.1-6.6 1.2-9.2 5.5-13.2 3.1-2.9 3.9-4.2 3.4-6-.3-1.3-.1-3.3.5-4.4.8-1.5.8-2.4.1-3.3-.6-.8-.9-2.1-.5-3 1.2-3.2-.6-10.3-3.3-13.1l-2.7-2.6-2.4 2.5c-1.8 1.7-2.6 3.9-3 7.5-.3 4-.8 5.1-2.2 5.1-4.8 0-4.8 7 0 14.1 2.5 3.8 2.6 4.4 1.7 9.2-1.3 6.6-1.3 6.7-4.2 3.2-3.2-3.9-4.5-2.2-4.5 6-.1 4.7-.3 5.6-1.1 4.2-1.3-2.3-3.5-.8-4.4 3.1-.3 1.5-1.7 4.1-3.1 5.7l-2.6 3 .6-6.5c1-10.4 2.1-16.3 3.8-19.5 3.6-7 5.2-22.5 2.2-22.5-2.6 0-10.1 8.9-13.4 15.9-1.7 3.5-3.2 6.2-3.3 6-.2-.2-.1-7.5.1-16.1l.4-15.8 2.3.6c5.7 1.4 12.2-5.6 10.5-11.5-.7-2.5-.6-3.1.6-3.1 2.8 0 7.4-5.6 7.4-9 0-7-4.2-10.8-11-9.8-3 .5-3 .4-3-4.4 0-6.2-3.1-9.8-8.5-9.8-5.2 0-8.5 3.6-8.5 9.2v4.3l-5.4-.3c-4.8-.3-5.5-.1-7.5 2.4-4.5 5.8-1.1 15.4 5.6 15.4 2.3 0 2.3.1.9 2.2-4.4 6.2.3 14.6 7.5 13.4l3.9-.6v15.7c0 18.9-.7 23.2-2.6 15.8-2.9-11.9-4.5-16-7-18.6-5.2-5.4-7.7-3.3-6.2 5.1.5 2.5 1 5.6 1.2 7 .3 2.7 4.4 9.8 6.7 11.7.8.6 2.5 1.3 3.9 1.5 3.2.4 4 1.5 4 6 0 4.8-1.4 5.6-3 1.5-2-4.9-5-7.9-6.6-6.6-.8.6-2.1.9-2.9.5-2.1-.8-1.9.2 1.6 8.9 1.7 4.3 3.3 9.4 3.6 11.4l.5 3.6-1.7-2.5c-1-1.4-2.4-3-3.2-3.6-.7-.7-1.9-3.1-2.6-5.5-1.6-5.6-2.6-5.5-5.8.4-4 7.4-4.9 7.9-4.9 2.7 0-2.5.7-6.7 1.5-9.5 1.6-5.2 1.3-21-.5-30.5-.5-2.5-1.2-6.3-1.6-8.5-.7-3.8-.8-3.3-2.9 7-3.6 17.4-4.6 20.5-3.9 12.2.3-3.7.1-10.7-.5-15.5s-1.5-13.2-2.1-18.8-1.6-11.6-2.2-13.5-1.3-4-1.5-4.8-.5-1.2-.7-1c-.4.4-3.1 24.4-4.3 38.2-.8 8.3-2.6 6.7-3.5-2.9-1.2-13.3-2.9-28.5-4-36.7-1-7.4-.9-8.2 1.1-11.8 2.8-4.9 2.7-13.5-.1-13.3-1.5.2-1.8-.6-1.8-4.3 0-3.2-.8-5.6-2.8-8.6-1.6-2.3-4-6.3-5.5-8.9-3.2-5.4-4.3-6.4-6.1-4.9-1 .9-1 2.6.1 9.3.7 4.6 1.1 9.4.8 10.8s.1 4.3 1 6.3c.9 2.1 1.1 3.7.5 3.7-2.6 0-.9 5.8 2.5 8.4 1.9 1.5 4 3.7 4.7 4.9 3.1 5.6 6 32.3 5.6 50.7-.2 7.4-.2 17.4-.2 22.3.1 7-.1 8.4-1.1 7-1.4-2.2-4.1-9.8-4.9-13.8-.5-3-.5-3 .7-.5 2.6 5.5 3.7 5.5 3.7-.2 0-3.2-.4-4.8-.9-4-2.8 4.4-6.1-11.1-6.2-29 0-11.2-1.3-17.8-3.6-18.5-1.7-.6-2 1.6-3.2 26.7-.6 12.4-1.4 26.9-1.6 32.2-.5 8.5-.3 10.3 1.5 13.8 1.1 2.2 1.7 4 1.3 4-1.3-.1-7.3-8.8-7.3-10.5 0-1.5-9.7-12.5-11.1-12.5-.8 0 .7 8.2 2.7 14.2 1.8 5.6 1.5 10.1-.5 5.4-.6-1.5-2.1-4-3.3-5.5l-2.1-2.6.7 4.3c.9 6.2-1.2 8.2-4.6 4.3-1.4-1.5-2.8-4-3.2-5.5-.6-2.4-1.1-2.7-3.1-2.2-1.4.3-3.7.9-5.2 1.2-1.6.4-3 1-3.3 1.3-1.1 1.3-10.8 9.1-11.4 9.1-.3 0-.6-5.6-.6-12.4v-12.4l3.8-1.3c7.8-2.5 19.1-12.1 22.6-19.1 2.8-5.6 3.6-14.4 1.4-16.6-4.4-4.4-16.8 4.4-24.3 17.2-1.5 2.5-2.9 4.6-3.1 4.6s-.4-7.1-.4-15.8v-15.8l4.6-1.2c15.2-4.1 28.7-23.9 21.4-31.2-5.3-5.3-15.6 1.4-23.3 14.9l-2.4 4.2-.6-13.8c-.9-17.6-.1-24.6 2.4-23.8 2.9.9 8.6-2.3 9.9-5.6.7-1.6 1-4.5.7-6.4-.5-3.3-.3-3.6 2.7-4.9 10.3-4.3 8-18.5-2.7-17.4-2.3.3-4.9.8-5.8 1.2-1.4.6-1.6.1-1.2-3.6 1.1-9.6-3.1-16.3-9.8-15.6-5.2.5-7.4 4.5-7.3 12.8l.1 6.8-2.4-.9c-1.3-.5-4.2-.9-6.3-.9-9.4 0-10.8 13.7-1.7 17.5 2.9 1.2 3.1 1.6 2.8 5.8-.3 6 3 10.1 8.3 10.1h3.6v15.3c0 8.4-.2 15.3-.5 15.3-.2 0-1.3-2.1-2.5-4.7-2.2-5.1-9.8-13.6-14.2-15.9-3.8-2-9.1-1.8-11.1.4-6.4 7 6.4 27.2 21.8 34.4l6.6 3.1-.2 15.3c-.1 8.5-.5 15.4-.9 15.4-.3 0-1.5-1.9-2.7-4.2-4.7-9.7-14.3-17.8-21.1-17.8-9.4 0-6.5 15.6 5 27.1 4.5 4.5 15.4 11.9 17.6 11.9 1.7 0 2.3 5 1.6 13.2l-.7 7.9-1.7-2.8c-2.6-4.2-12.1-12.8-16.8-15.2-6.3-3.2-9-2.8-9.8 1.3-1.2 6.7 2.1 15.1 8.4 21.4 2.1 2 4.8 5.2 6.1 7l2.2 3.2h-3c-1.7 0-4.7-1.1-6.7-2.5s-4.5-2.5-5.4-2.5c-2.2 0-4.4-2.5-3.5-4 .8-1.3-1.4-4.2-2.6-3.4-.5.3-.9.2-.8-.3.4-2.2-1.5-5.4-2.9-4.8-1.2.4-1.3-.1-.8-2.5.4-2.2.2-3.2-1-3.7-2.1-.8-2.5-.1-2.9 4.7-.1 2.3-.7 4.6-1.3 5.2s-.8-.5-.5-3.5c.6-5.1-1-9.6-2.3-6.3-.4 1-1.7 2.9-3 4.2-1.3 1.2-2.4 3.1-2.4 4.1 0 2-6.1 7.3-8.4 7.3-.9 0-2.1 1.1-2.8 2.4-.9 1.6-1.8 2.1-3 1.7-1.4-.5-.8-1.8 3.8-8 8.7-11.6 14.2-24.7 11.6-27.3-2.9-2.9-19.2 10.6-25.9 21.5-2 3.1-3.7 5.7-3.9 5.7s-.4-6-.4-13.4v-13.5l6-3.2c11.9-6.3 24-22.7 22.6-30.4-1.8-9.2-15.5-2.6-24.2 11.6-1.9 3.3-3.7 5.9-4 5.9-.2 0-.4-5.1-.4-11.3v-11.3l6.3-4.1c7.1-4.5 11.7-11.6 11.7-18.1 0-11.3-9.7-9.1-15.4 3.6-1 2.3-2.3 4.2-2.8 4.2-.4 0-.8-4-.8-8.9 0-7.4.4-9.8 2.5-14.3 5.5-11.8.8-25.5-7-20.4-4.9 3.2-6 12.2-2.4 19 2.1 4 2.5 7 2.1 16.6l-.2 5.5-2.4-5c-2.1-4.7-8-11.5-9.8-11.5-2.6 0-4.8 4.3-4.8 9.1 0 7 2.8 11.7 10.6 17.5l6.4 4.8v14.8c0 8.2-.2 14.8-.6 14.8-.3 0-1.2-1.7-2-3.7-7.3-17.3-25.4-27.7-25.4-14.6 0 10.5 11.6 24.5 23.8 28.7l3.7 1.3v11.7c0 6.4-.1 11.6-.2 11.6-.2 0-1.1-1.7-2.2-3.8-4.2-8.2-17.5-18.1-24.5-18.2h-2.9l.6 5.5c.7 7.3 4.7 14.4 13.1 23.3 3.8 4 6.6 7.6 6.2 7.9-2.2 2.2-8.3.7-11.9-2.9-2-2.1-3.7-4.4-3.7-5.1 0-.8-.9-2.4-2-3.7l-2-2.3v2.4c0 1.7-.3 2-.9 1.1-.6-1.1-1.5-.7-3.8 1.8l-2.9 3.1.9-7.2c.9-6.1.8-7.3-.6-8-1.2-.7-1.4-2-1-6.4.8-7.3-.6-7-4.5.8-1.8 3.4-3.2 5.8-3.2 5.3s-.6-.3-1.4.3c-1.1.9-1.5.2-2.1-4.4-.6-5.4-.5-5.7 2.9-9.5 3.8-4.2 5.2-9 4.1-13.9-.7-3.5-2.1-4-3-1.2-.8 2.5-4.4 7.1-5.6 7.1-1.7 0-.9-3.7 2.1-9.6 3.7-7.3 3.8-8.8.5-8.2-2.1.4-2.5.1-2.5-1.7 0-2.9-2-8.5-3-8.5-1.6 0-3.2 3-3.5 6.7-.1 2.1-.8 5-1.5 6.5-1.1 2.4-1 3 1.4 5.8 4.4 5.3 3 6.2-5.1 2.9-4.5-1.8-5.3-.4-1.5 3.1 1.8 1.6 3.2 3.4 3.2 4.1s.6 1.9 1.4 2.8 2.6 2.9 4 4.4c3.1 3.4 3.2 3.7.6 3.7-1.1 0-2-.4-2-1 0-1.7-8.2-9-10.1-9-3.4 0-2.1 3.7 2.6 7.5 5 4.2 8.5 9.2 8.5 12.4 0 2.8-.8 2.7-4.7-1.1s-4.5-2-1.3 4.2c2 3.9 2.7 9 1.3 9-.5 0-3.1-2.6-5.9-5.7l-5.2-5.8.5 5.5.4 5.5-2.1-2.4c-1.1-1.3-2.3-2.1-2.7-1.7-.3.3-.3.6.2.6.4 0 .2.7-.5 1.5-.6.8-1.4 4.1-1.7 7.5l-.6 6h-7.7v-25.4l-4.8-4.6c-12.1-11.5-18.5-23-20.2-36.4-1-7.2-1.3-17.6-.6-17.6.2 0 2.3 1.1 4.8 2.5 10.9 6.1 25.7 7.1 35.8 2.4 7.7-3.6 12.1-7.7 16.1-15.1 3.2-6 3.4-6.8 3.4-16.3-.1-9.2-.3-10.6-3.4-17.5-5.9-13-5.9-20.2-.1-27.5 4.6-5.8 3.3-11.5-3.3-13.8-2.7-1-8.1 1.7-10.6 5.1-6.4 9-6.2 23 .4 38.5 3.3 7.7 3.7 9.4 3.3 15.1-.7 11.4-8.1 18.4-20.4 19.4-9 .7-13.9-1.7-24.3-11.8-24.2-23.7-29-25.3-75.8-25.1-42.3.2-38.5 2-45.9-20.6-4.7-14.2-6.6-18.7-8.5-19.8-1.2-.8-6.6 4-7.5 6.7-1 3.4-5.5 2.2-10.2-2.7-2.4-2.5-5-4.5-5.8-4.5-2.1 0-3.7 4.9-2.9 9.4.5 3.6.3 4.2-4 8.2-2.7 2.7-4.5 5.3-4.5 6.6 0 1.2-1.6 4.9-3.6 8.2-3.5 5.6-3.6 6.1-2.4 9.5 1.9 5.6 4.7 7.9 10.7 9.1 9.3 2 10.5 3.8 16.7 25 8.1 27.8 8.8 30.9 8.4 37.2-.5 6.6-6.2 19-12.8 27.8-2.3 3-5 7.2-6.1 9.2-2.7 5.2-7.8 10.8-9.8 10.8-2.1 0-5.1 3.1-5.1 5.2 0 1.9-3 3.2-4.2 2-1-1 2.4-12 4.9-15.9 1.4-2.1 1.4-2.8.4-4.5-1.3-2-.8-3.3 1.2-3.3.6 0 2-1.5 3.1-3.4 1.6-2.8 1.7-3.9.9-6.2-.7-1.7-.7-3.1-.2-3.5.5-.3.9-1 .9-1.7 0-.6-2.8 1.7-6.3 5.1-5.6 5.6-9.5 11.4-11.2 16.6-1.2 3.9-1.3.7-.5-11.2.9-12.5 1.8-15.2 5.1-15.2 1 0 3-1.1 4.6-2.4 2.5-2.1 2.8-3.1 3.1-10.1.4-7.6.4-7.7-1.7-6.6-2.4 1.3-2.9 2.6-.7 1.8 1-.4 1.3-.1 1 .8-.5 1.3-3.3 2.9-4 2.3-.1-.2.5-3.3 1.3-6.9 1.6-6.3 1.2-13.9-.6-13.9-2.4 0-6.1 7.8-6.1 12.8 0 5.9-1.1 6.7-3 2.2-1.7-4.1-3.3-3.3-4.3 2.1-1 6 0 12.3 2.4 14.5 1 .9 1.7 2.4 1.5 3.3-.3.9-1.2 4.2-2.1 7.4-.9 3.1-2 5.7-2.5 5.7-1.2 0-5-11.8-5-15.4 0-1.7-.5-3.8-1-4.6-.8-1.2-1-.9-1 1.2 0 1.4-.9 5.5-2 9-1.1 3.4-2 7.5-2 8.9 0 1.9-.5 2.6-1.7 2.5-1.5-.1-1.8.9-2.1 5.9-.5 13.7-3.2 13.9-6.1.5-.9-3.9-.7-5 1.3-8.5 3.3-5.8 4.8-12.9 4-19.2-.7-6.1-.6-6-4.5-3.2-3.8 2.7-8.3 9.3-10.9 16-1.2 3-2.5 5.8-3 6.3-.4.4-.9-6-.9-14.3-.1-8.3-.4-15.8-.7-16.6-.7-1.7 0-1.9 2.6-.5 5.2 2.8 12.8-4.8 11-11-.5-1.9-.9-3.4-.7-3.5.1 0 1.5-.6 3-1.3 3.9-1.7 5.9-6.8 4.6-11.6-1.4-5-4.8-7-10.3-6.3l-4.3.6-.6-4.5c-1-9.1-8.8-12.5-14.8-6.5-2.3 2.4-2.9 3.8-2.9 7.4v4.5l-3.9-.5c-7.2-1-12.4 5.7-10 12.7 1.1 3 4.7 6 7.3 6 1.2 0 1.3 1.1.9 5.3-.4 4.6-.2 5.5 2 7.6 2.7 2.4 5.5 2.9 9.8 1.7l2.6-.8.5 19.9c.3 10.9.3 20 .1 20.3-.8.9-2.1-2.3-2.7-6.6-.7-5.3-4.5-13.1-8.7-17.9-9.2-10.4-10.9 6-1.9 17.4 3.3 4.1 3.7 5.5 4.3 12.2.4 4.2 1.6 9.7 2.7 12.3l2 4.7-2.2-.3c-1.7-.2-2.6-1.8-4.5-7.5-2-5.8-3.1-7.6-5.8-9.3-1.8-1.1-3.6-2.8-3.9-3.7-1.4-3.4-2.9.3-1.7 4 .9 2.6.9 4.1 0 6-1.5 3.2-2.9 2.6-2.9-1.3 0-3.3-1.8-4.9-3.1-2.9-.5.8-.9 2.9-.9 4.7 0 3.6-1.5 4.3-2.5 1.2-.7-2.3-2.5-2.7-2.5-.6 0 .8-.7 1.6-1.5 2-.8.3-1.5 1.1-1.5 1.8 0 2.2-3.3 4.3-6.7 4.3-3.6 0-4.1-.6-1.8-2.5 2.6-2.2 9.7-13.2 13.1-20.4 4.3-9.2 5.4-17.2 2.7-20.5l-1.9-2.4-4 1.9c-5 2.3-13.2 10.8-19.5 20.2l-4.9 7.4v-33.7l2.5-1.6c15.9-9.6 29.5-40.9 17.8-40.9-5.9 0-12.3 6.6-18 18.5-2.5 5.2-3.1 2.6-3.2-12.7l-.1-12.8 3.5-1.4c5.4-2.3 12.9-10.4 14.8-16.1 3-8.6 1.7-16.5-2.7-16.5-3.2 0-9.5 6.3-13 13-2.1 3.9-4.1 6.8-4.7 6.5-2-1.3-1-13.1 1.6-18.7 4.7-10 2.7-20-4-20-6.6 0-8.4 8.7-4 19.2 1.4 3.3 2.5 7.6 2.5 9.7v3.7l-3.2-5.4c-5.3-8.9-10.8-10.4-13.2-3.7-1.8 5 1.6 12.7 9.4 21l7 7.5-.1 12.8c0 10.2-.3 12.4-1.1 10.4-6.2-14.2-13.3-22-20.1-22-6 0-6.8 8.4-1.8 18.5 3 5.9 11.1 15.3 19.4 22.1l3.7 3.1-.1 13.9v13.9l-2-4.5c-6.4-14.4-21.1-25.4-26.7-19.8-4.6 4.6 2.9 20.9 14.8 32.1 8.4 7.9 10 11.1 5.4 11.5-4.1.3-4.4 1-2.3 5.9 2.3 5.4 2.4 5.1-2.6 5.6-5.3.6-9.5-1-9.5-3.4 0-1.1-1.1-2.9-2.5-4.1s-2.5-3.3-2.5-4.7c-.1-2.5-.1-2.5-1.5-.7-1.3 1.7-1.4 1.4-1.7-3-.3-4.8-.4-4.8-1.5-2.1-1.9 4.2-2.5 3.2-1.8-2.7.8-6.4-.8-8.3-2.6-3.1-.7 1.9-1.6 3.5-2 3.5s-1.1-4.9-1.4-11c-.4-6-1-11-1.4-11-1.9 0-8.6 12.8-10.2 19.5-2.9 12.4-4.5 11.1-5.3-4.2-.9-16.2-.6-17.3 5.5-21.3 2.7-1.7 6-4.6 7.4-6.4 5.2-6.9 8.5-21.9 5-23.2-4.1-1.6-12.1 5.2-15.7 13.3-1 2.4-2.3 4.3-2.8 4.3-.6 0-1-4.9-1-11.5v-11.4l4.3-1.9c7.6-3.4 11.9-12.3 9.2-18.9-1.5-3.6-3.6-4.1-8.7-1.9-1.5.7-1.6.4-.6-3 1.2-4.5.6-11.8-1.2-13.9-1.9-2.3-6.6-1.9-8.4.7-3.4 4.8-.9 19.8 3.4 20.8 1.4.3 2.5 1.1 2.4 1.8s-.2 1.9-.2 2.7c-.3 2.8-3.9 1.7-4.5-1.3-1.2-5.7-9.2-11.7-9.2-6.9 0 .9-.6 2.2-1.3 2.9-3.5 3.5.4 12.6 7.1 16.1l3.7 1.9-.1 14.6c-.1 17.7-.8 20.9-3.3 13.7-4.1-12.4-12.2-21.5-19.2-21.5-5.9 0-6.8 5.8-2.4 15.8 2.1 4.6 11.9 15.6 16 17.7 1.4.8 4 2.8 5.8 4.5l3.2 3.1v12c0 7.3-.4 11.9-1 11.9-.5 0-1-.7-1-1.6 0-3.8-6.6-13.7-12.5-19-3.4-3-6.4-5.4-6.6-5.4s-.5 2.5-.6 5.5c-.3 6 1.9 12.7 6.1 19.2 2.4 3.8 4.4 11.3 2.9 11.3-.4 0-2.5-1.7-4.6-3.7-2.5-2.5-4.1-3.4-4.4-2.5-.9 2.4-2.3 1.1-2.3-2.2 0-5.2-2.3-6.4-5.1-2.6-6.1 7.9-6.8 8.5-7.8 7.5-.7-.7.1-3 2.8-7.3 4.2-6.9 5.6-12.6 4.1-16.7-1.1-2.8-3.8-2.8-7.1.1-2.6 2.3-3.2 1.6-2.5-3.1.4-3.6.2-4.7-1-5.2-1.9-.7-5 2.1-5.8 5.3-.8 2.9-2.1 2.5-2.9-.8-.3-1.3-1.2-4.4-1.9-7.1l-1.4-4.7-2.2 2c-1.7 1.6-2.2 3.2-2.2 7 0 5.8-.9 6.2-4.3 1.9-2-2.6-2.5-2.8-3-1.4-.4.9-.3 1.4.2 1.1 1.1-.7 3.2 6.4 3.8 12.8.3 3.8.2 4.7-.6 3.6-.6-.8-1.1-2.7-1.1-4.2s-.8-3.5-1.8-4.5c-1.1-1-2.2-2.7-2.7-3.8-.7-1.8-.9-1.8-1.2-.2-.3.9.7 4.2 2.1 7.2l2.5 5.5-3.7-2.5c-7.2-4.9-9.1-2.6-4.6 5.8l2.5 4.8-2.3-1.2c-1.3-.6-3.3-2-4.4-3.1-1.9-1.7-2.2-1.7-2.8-.3-.3.9-.3 2.7 0 4.1.5 1.8.2 2.4-.9 2.4s-1.7 1.2-1.9 4.3c-.3 3.9-.5 4.2-3.5 4.5-1.9.2-3.3-.1-3.3-.8 0-.6-1-1.4-2.3-1.9-2.8-1.1-4.7-8.1-4.7-17 0-5.1.4-6.4 3.6-10.5 5-6.6 7.1-12 7.9-20.6.9-10.5 1.1-10.8 5.8-12.1 11.5-3.1 16-10.6 10.5-17.6a41 41 0 0 1-4.2-6.3c-3-5.5-4.7-7.1-10.2-9.6-4.7-2.1-5.2-2.6-5.8-6.3-1.6-10.1-5.6-19.9-10.2-25-5.7-6.3-8-7.7-10-6-1.7 1.4-2 13.8-.4 17.2 1 2.1 1 2.1-.2.2-4.2-6.6-19.5-16.6-23.3-15.2-1.5.6-1.7 1.5-1.1 5.4 1.3 9.8 7 19 18.8 30.5l6.9 6.8-1.6 2.9c-.8 1.7-1.5 4.3-1.5 5.9 0 2.2-1.1 3.9-4.1 6.6-5 4.6-7.6 5.6-14.7 5.6-30.3.1-50.2 17.2-50.2 43.2v6.8h-3c-5.4 0-8 9.2-4 14.3 1.8 2.2 1.8 2.6.4 3.1-2.9 1.1-8.4-1.5-8.4-4.1 0-1.2-.9-2.7-2-3.3-1.6-.9-1.8-1.5-1-3.6 1.6-4.1 1.3-5.9-.6-4.3-.9.7-2.9 1.4-4.5 1.4-2.5.1-3-.4-3.5-3.2-.8-4.4-.1-6 4.1-8.4 3.8-2.3 4.6-6.1 1.4-6.7-1.8-.3-14.9 11.8-14.9 13.9 0 1.1.2 1.2.9.1.6-1 1-.4 1.5 1.9.7 3.9 1 3.6-3.8 4.5-3.6.6-3.9.5-3.2-1.2.4-1 1.7-5.3 2.8-9.4s4-11.5 6.4-16.5l4.4-8.9 3.8.3c4.4.3 10.5-3.9 10-6.7-.2-.9.9-2.8 2.5-4.3 3.4-3.5 3.9-9.9.7-9.9-1.7 0-2-.7-2-4.4 0-4.8-1-6.1-5.3-6.8-5.1-1-8.6 1.1-9.5 5.7-.7 3.7-1 4-4.1 4-4.2 0-6.2 2.5-4.3 5.5.9 1.5 1 2.6.2 4-1.6 3-1.2 4.6 1.9 7.9l3 3.2-2.2 5.7c-2.4 6.5-5.5 12.2-6.6 12.2-.4 0-1.4-2.8-2.2-6.2s-1.9-6.3-2.5-6.5c-2.3-.8-2.2 5.3.2 12.9l2.5 7.8-3.7 7.5c-2 4.2-3.8 7.4-4 7.2-.2-.1.2-2.2.7-4.6 1.2-5.3-.4-7.1-3.6-4.2-3.9 3.5-4.2 3.3-3.8-2.2.3-2.9.9-6.5 1.4-8.1.6-1.9.5-3.3-.1-4.1-.6-.7-.7-2.1-.3-3.1.5-1.3-.7-.8-3.9 1.8-2.5 2.1-4.8 3.5-5.1 3.2-.6-.7-2.7 3-3.6 6.3-.4 1.6-1 2-2 1.3-1-.6-1.6-3.4-1.9-9.2l-.4-8.3 6.2-2.9c8.7-4.1 14-11.9 14-20.4 0-9.6-7.3-6.7-16.8 6.5l-3 4.3-.7-7.3c-.7-7.7.1-13.1 1.7-12.1 3.1 1.9 12.1-5.3 13.3-10.7.8-3.6-.2-6.9-2.1-6.9-2.6 0-9.6 5.1-9.2 6.7s-1.4 7.3-2.3 7.3c-.5 0-.9-2.7-.9-6 0-5.9 0-6 3.8-7.9 5.1-2.6 6.9-4.8 8.3-10.3 1.9-7-1.5-10-6.9-6.2-2.2 1.5-2.3 1.5-1.5-1.3 1.6-5.7.9-11.4-1.6-13.4-2.9-2.4-3.6-2.4-6.1.1-1.5 1.5-2 3.3-2 7.9v5.9l-3.9-.5c-7.7-1-8.1 6.5-.7 15.1 4.2 4.9 4.3 5.4 5 13.9.4 4.8.4 12.6 0 17.3-.7 8.4-.7 8.5-2.1 5.4-4.3-10.4-15.2-20.8-19.1-18.4-6.8 4.3 2.9 23.5 15.5 30.6l5.3 3v8.4c0 4.6-.3 8.4-.7 8.4-.5 0-1.7-1.4-2.8-3-2.5-3.7-11.9-10.5-13.4-9.6-1.5 1-1.4 5.1.2 8.4 1.9 3.7 1.5 13.2-.6 16.2-.9 1.4-1.7 3.7-1.7 5.3 0 1.5-.4 2.6-.9 2.2-.6-.3-.7-3.6-.4-7.5.6-7.6.5-7.8-3.3-5.4l-2.5 1.7.2-8.4c.2-8-1.1-13.6-3-12.5-.4.3-1.6 3.2-2.6 6.5-1 3.4-2.6 6.8-3.5 7.6-3.3 3-.5-8.1 3.5-13.9 3.3-4.8 4.6-9.6 2.7-9.6-.5 0-1.7 1.8-2.7 4-2.3 5.1-3.5 4.3-3.5-2.4 0-5.4-1.6-11.6-3-11.6-.8 0-2 10-2 17.6 0 8.1-3.6 6.7-4.2-1.6-.2-2.5-.7-4.5-1.2-4.5-1.3 0-5.6 14.3-5.6 18.8 0 2.1-.7 4.5-1.5 5.4-.9.9-1.3 2.3-1 3.4.7 2-.9 2.6-2 .8-1-1.6-4.3 1.8-7.1 7.2-1.3 2.6-3 4.9-3.7 5.2-2.4.9-.9-7.3 1.9-10.3 3.8-4.2 6.7-11.9 7.2-19.6.3-4.6.1-7.4-.6-7.8-3.3-2-15.5 9.8-20 19.5-1.5 3.2-3 5.9-3.5 5.9-.4 0-.6-6.6-.5-14.6l.3-14.7 5.2-1.7c16.6-5.4 30.2-31 16.6-31-5.9 0-15.3 8.5-20.5 18.4-1.5 2.8-1.5 2.7-2-5.5-.3-4.6-.3-10.9 0-14.1l.4-5.6 4.7-1.7c6.2-2.4 14.2-8.6 17.7-13.8 3.9-5.8 4.7-15 1.5-16.7-5.2-2.7-15.5 5-20.6 15.5-1.5 3-3.1 5.2-3.6 4.9s-.9-6.3-.9-13.5c0-12.1.1-12.9 1.9-12.9 2.6 0 8.1-4.7 8.1-6.9 0-1 .9-2.6 2-3.6 1-.9 1.8-2.1 1.7-2.4-.1-.4 1.3-2.2 3.1-4 3.4-3.5 3.9-5.5 2-9.6-2-4.4-7.1-4.5-13.2-.2l-2.9 2.1.6-2.5c2.5-8.9 1.3-15.4-3.2-17.9-8-4.2-14.3 5-10.7 15.6 2.2 6.5 2.1 7-1.5 4-6.2-5.3-12.8-1.8-11.6 6 .7 4.4 3.3 8.5 5.7 9.1 1 .3 2 1.8 2.4 3.5.9 4.4 2.4 5.8 6.2 5.8h3.4l-.1 13.3v13.2l-2-4.4c-8.2-18.4-29.6-24.9-24.4-7.3 2.8 9.4 11.6 18.2 21.8 21.9l4.7 1.8v26.9l-4.3-6.5c-11.5-17.1-29.5-17.7-21.9-.7 4 8.9 17.4 19.8 24.4 19.8 1.7 0 1.8 1.1 1.8 14.8l-.1 14.7-2.3-4.5c-2.7-5.1-13.1-15.5-17.1-17-4.8-1.8-8.4-1.3-9.1 1.4-1.5 6 3.8 15.4 14.6 26.1 4.4 4.4 8 8.3 8 8.6 0 .4-1.8 1-4.1 1.4-4.1.7-9.9-.9-9.9-2.7 0-1-7.5-8.8-8.5-8.8-.3 0-1 1.2-1.5 2.6-1.4 3.5-3.3 2.6-4.3-2.2-.4-2.1-1.4-4.2-2.2-4.7-.8-.4-1.5-1.8-1.5-3 0-2.2-.1-2.2-2 .3l-2.1 2.5.7-3c.4-1.6 1.1-3.8 1.6-4.8s.7-2.2.3-2.5c-.9-.9-7.3 2.8-9.8 5.8-3.6 4.1-10.9 10-11.8 9.4-.5-.3-.9-3.4-.9-7V470l5.3-2.4c8.5-3.7 15.7-12.5 15.7-18.9 0-8.4-4.4-7.8-13.7 1.7l-7.3 7.5v-6.5c0-6 .2-6.5 2.8-8.2 1.6-.9 5.8-4.4 9.5-7.7 5.4-4.9 6.5-6.4 6.1-8.3-.5-1.7-1.4-2.2-3.9-2.2-3.3 0-6.5 2.7-12.2 10.5l-2.2 3-.1-8.8c0-8.7 0-8.8 2.8-9.7 6.8-2.4 10.4-7.4 10-13.5-.3-3.6-.5-4-2.8-3.7-1.3.1-3.4 1.1-4.5 2.2-3.2 3-3.3 2.5-.9-4.7 3-8.6 3-9.8-.1-12.8-3-3.1-4-3.1-7.2.1-2.4 2.5-2.5 2.9-1.9 10.5l.7 8-2.5-2.6c-3.2-3.2-6.1-3.2-8.1-.1-3.1 4.6 2.1 14.7 8 15.8 2.4.4 2.9 3.2 2 10.5-.7 5.8-1.9 6.7-3.7 2.8-.6-1.3-2.9-3.7-5.1-5.2-3.8-2.7-3.9-2.7-5.4-.8-2.8 3.8-1.1 9.5 4.3 14.3 2.7 2.3 5.4 4.2 6 4.2 1.6 0 2.4 3.4 2.4 10v5.5l-2.1-3.5c-4.3-7.3-13.5-15-15.9-13.5-3.3 2 1.2 11.6 9 19.3l5.9 5.7-.7 5.4-.7 5.4-3.7-5.4c-2.1-3-5.8-7.4-8.3-9.8-2.5-2.5-4.5-5.1-4.5-5.8s-.6-1.3-1.4-1.3c-1.4 0-2.6 2.9-2.6 6.6 0 1.2-1 2.5-2.5 3.2-2.4 1.1-2.7.9-6.1-4.4-2-3.2-3.2-5.9-2.7-6.3 3.4-2.2 5.5-14.9 2.8-17.1-1.5-1.3-2-1.1-4.2 1.5l-2.5 3 .7-3.2c1.3-6.6-3.2-15.2-7.2-13.9-3.4 1.1-6.3 4.5-6.3 7.6 0 1.6-.5 4.1-1.2 5.6-1.1 2.3-1 2.8 1.1 4.5 1.3 1.1 3 1.9 3.8 1.9 2 0 4.6 2.7 3.8 4-1 1.6-3.3 1.2-4.4-.7-.9-1.7-1-1.7-1.6 0-.4.9-.4 2.4-.1 3.2.7 1.9 6.5 4.5 9.9 4.5 2.4 0 4.8 4 7.2 11.7 1.5 5.1-2.9 4.5-9.1-1.2-3.3-3.1-4.4-3.2-4.4-.2 0 1.7 1.1 2.8 4.3 4.4 7.1 3.4 10.8 7.1 10.1 9.9-.4 1.5 0 3.4 1 4.9 1.8 2.7 2.2 7.5.6 7.5-.5 0-1-1-1.1-2.2v-2.3l-1.1 2.2c-1.9 3.9-7.1 4.3-6.1.4 1.2-4.8-4.9-11.1-10.7-11.1-6.7 0-12.4-9.4-11.4-18.5.7-6.1-.9-7.8-2.4-2.4l-.8 3.2-4.5-7.9c-7.8-13.5-10.9-25.2-10.9-40.9 0-7.9.2-8.5 3.5-13.1 8.2-11.5 12.6-23.1 15.1-39.9 4.6-31.3 12.3-41.4 33.6-44.4 9.4-1.3 15.1-4.1 18.7-9.2 3-4 7.1-15.1 7.1-18.9 0-2.7-4.4-5.7-9.3-6.5-13.3-2-13.6-2.1-23.4-13.2a32.5 32.5 0 0 0-31-10.3m-669.5 63.1c-1 .5-1.8 1.8-1.8 2.8 0 4.2 6.1 5.7 8.1 1.9 1-1.8.8-2.4-1.1-4-2.5-2.1-2.9-2.1-5.2-.7m1702.6 16.4c-.8 2 .4 3.5 2.6 3.5 2.3 0 3.2-1.3 2.4-3.4-.8-2-4.3-2.1-5-.1m-898.2 15.2c.2 1 1.4 1.9 2.6 2.1 1.9.3 2.3-.1 2-1.5-.2-1-1.4-1.9-2.6-2.1-1.9-.3-2.3.1-2 1.5m-493.8 16.8c-.8 2 .4 3.5 2.7 3.5 1.4 0 1.9-.7 1.9-2.5 0-2.8-3.6-3.6-4.6-1m-132.7 36.2c-1.2 1.1-.8 5 .7 6.2 3 2.5 7.1-2.4 4.6-5.4-1.3-1.6-4.2-2-5.3-.8m1099.5.5c-3 3 .3 7.7 4 5.7 3-1.6 1.6-6.9-1.7-6.9-.6 0-1.6.5-2.3 1.2m550.1-.5c-1.8.7-1.6 5.2.2 5.9s4.5-1.2 4.5-3.2c0-1.6-3-3.3-4.7-2.7m-1213 7.3c-10.3 2.6-23.9 3.3-37.8 2-6.6-.6-15.6-1.4-20-1.7l-8-.5-4.7 7.3c-2.6 4.1-9.5 12.5-15.2 18.6-5.8 6.2-10.8 12.4-11.2 13.9-1.9 7.4 10.3 27.4 16.7 27.4 1.4 0 1.9-.7 1.9-2.9 0-5 1.2-12.1 2.1-12.1.5 0 .8 3.4.6 7.6-.3 6.6-.1 7.7 1.6 8.6 1 .5 2 .8 2.1.6 1.5-2.5 5.6-11.7 5.6-12.6 0-.8.6-1.2 1.3-1 .7.3 1.7 3.7 2.3 7.9.6 4.3 1.5 7.3 2.1 7.2s1.4 1.3 1.7 3.1c.6 3.3 3.1 6.4 4.2 5.4.3-.3-.7-3.2-2.1-6.4-2.6-5.9-2.7-6.3-1.2-16.4.2-1.4.5-4.1.6-6 .1-2.4.4-3.1 1-2.1 1.5 2.4 3.4.1 2.8-3.5-.5-3.1-.4-3.3 1.3-2.4 1 .5 2.6.7 3.4.4.9-.3 3.1.3 4.9 1.5 1.9 1.2 3.7 2.1 4.1 2.1 1.5 0 .4-5.5-2.3-10.6-3.4-6.7-3.2-9.2.5-6.7 1.3.8 2.4 1.9 2.4 2.4s.7.9 1.5.9c1.1 0 1.5-1.2 1.5-4.9 0-14.6 4.9-8.7 5.8 6.8l.5 9.5 3.2-9.3c3.6-10.2 5-12.5 6.5-10.1.7 1.2 1.2 1.2 2.2.2 2.7-2.7 3.7-1.4 3.1 4.5l-.6 5.7 2.6-1.7c5.5-3.6 6.1-1.4 1.8 7.1-4.2 8.2-4.8 10.7-2.5 9.7 6-2.5 10.4-3.9 10.9-3.4.3.4-1.3 4.4-3.5 9-5.1 10.5-5.1 11.9-.2 8.2 4.1-3.2 11.7-6.9 10.7-5.3-.3.5-.8 2-1 3.2-.3 1.3-1.4 3.5-2.5 5s-2 3.4-2 4.3c0 2.8 4.7-1.5 7.1-6.4 2-4.2 3.8-4.4 3.9-.3 0 .7 1.6 3.6 3.5 6.4l3.6 5.1-.2-7.4c0-4.1.2-8.7.6-10.3l.8-2.9 2.2 3.7c3.9 6.5 6.2 8.3 10.1 8 2.6-.2 3.7.2 4.1 1.4.3.9 1.8 2.9 3.2 4.3 1.4 1.5 3.4 3.8 4.4 5.3 2.2 3.2 4.6 3.6 2.5.4-.8-1.3-2.2-4.5-3.2-7.3-1.6-4.9-10.6-15.5-13.2-15.5-1.6 0-10.4-9.6-10.4-11.3 0-.8.7-2 1.5-2.7 1.7-1.5 6.9 3.4 9.1 8.5l1.2 3 .8-4c.6-3.2.3-4.6-1.5-7.5-4.3-7-14-26.8-17.1-34.8-1.7-4.5-3.4-8.2-3.8-8.1s-4 .9-7.9 1.9m1140.1 9.3c.3 1.2.6 3 .6 4 0 .9.7 1.7 1.5 1.7 1.8 0 1.9-1.7.3-5.3-1.6-3.3-3.3-3.6-2.4-.4M714.5 426c-2.4 2.7-19.4 11.3-33.7 17-16.2 6.6-17.9 8-21.2 18-3 9.1-5.6 20.7-5.6 25 0 4.6 3.1 9.1 5.9 8.8 2.4-.3 2.4-.6 2.4-8.3l-.1-8 2.1 2.7c1.2 1.5 3 3.7 3.9 5 1.7 2.3 1.7 2.3 1.7-2.2.1-2.5-.6-6.7-1.4-9.4-1.9-6.1-1.9-7-.1-6.3.8.3 1.6.1 1.8-.5.3-.7 1.5-.5 3.5.5 3 1.6 4.3 4 4.3 8.5 0 1.3.4 2 1 1.7.6-.4 1-4.3.8-9.3-.1-4.9.4-10.8 1.2-13.5l1.3-4.7 1.7 6.7c.9 3.8 2.4 10.3 3.4 14.6 1 4.2 2.1 7.7 2.6 7.7 1 0 2-3.6 2-8 .1-3.4 2.8-10.9 2.9-8.2.1.7-.3 2.1-.8 3-.4 1-.4 3.2.1 5l.9 3.3 1.8-2.2c1.7-2.2 1.8-2.1 2.9 4.9.7 3.9 1.2 8.3 1.2 9.9.1 2.7.1 2.7 1.5.9.8-1.1 1.5-2.7 1.5-3.6 0-2.4 3.6-5.4 5.6-4.6 1.4.5 1.6 1.6 1.1 6.6-.8 6.9-.4 7.2 3.4 2.8l2.8-3.3 2.6 3.3c1.5 1.7 3.6 3.2 4.7 3.2 2 0 2 0-.2-3.2-1.1-1.8-3-5.2-4-7.4-1-2.3-4.8-9.6-8.4-16.2-3.6-6.7-6.6-12.5-6.6-13.1 0-.5 1.8-3.3 4.1-6.1 4.9-6.2 7.7-12.2 8.5-18.4.7-5-.2-5.8-3.1-2.6M140 430.6c0 1 1.6 6.2 3.7 11.4 3.2 8.3 3.7 9.2 4.6 7.2 1.5-3.4-1.8-14.3-5.4-17.8-2.6-2.5-2.9-2.6-2.9-.8m1508.5 1c-9.6 3.4-26.2 7.4-30.7 7.4h-3.8v20.4c0 11.2-.3 21.7-.6 23.4-.5 2.7-.4 3.1 1.5 2.9 1.6-.1 1.9-.6 1.5-2.4-.4-1.3 0-2.9 1-3.8.8-.9 1.3-2.2 1-2.9s.7-4.3 2.1-8.1c1.4-3.7 2.5-7.7 2.6-8.9 0-1.1.7.4 1.4 3.4 3.7 15.6 6.5 19 6.5 8.2 0-9.2 3.9-8.3 6 1.3.6 2.8 1.5 5.6 1.9 6.4 1.3 2 3.1.4 3.1-2.7.1-1.5.9-4.5 2-6.7l1.9-4 .7 4.3c.8 5 2.4 6.6 2.4 2.4 0-2.9 3.2-7.7 4.4-6.5.3.3.6 2.8.6 5.5 0 6.2 1.1 6.1 5-.7 1.7-3 3.5-5.3 4-5s1.2 0 1.6-.6c.4-.8.3-.9-.4-.5-.8.5-1.2-.1-1.2-1.5 0-4.2 2.9.1 3.6 5.4l.7 5.1 2.7-3.2c3.2-3.9 5.4-10.4 4.4-13.5-.3-1.2-3.1-4.8-6.1-7.9-4.6-4.9-8.3-11.2-10.6-18-.8-2.2-.6-2.2-9.2.8M779 437.2c0 1.9 1.8 3.4 2.8 2.4.3-.4-.2-1.4-1.1-2.3-1.6-1.6-1.7-1.6-1.7-.1m1182.7 3.8c-1.5 8.5-1.7 13-.7 18.1 1.5 7.2 2.9 10.6 4.6 11.3s1.9-3 .3-7.1c-.6-1.5-1.2-5.3-1.5-8.3-.2-3-.7-8.2-1.2-11.5-.8-5.6-.9-5.8-1.5-2.5m-272.7 9c0 1.7.7 4.7 1.5 6.7 3.3 7.8 1.6 11.3-11.3 24.6-10.1 10.2-10.4 11.1-4.1 12.2 3.4.6 3.7.5 4.2-2.2.6-2.8 5-5.8 6.8-4.7.5.3.9-.9.9-2.5 0-4.5 3.1-4.1 5.5.7l1.8 3.7 1.3-6c1.7-8.4 3.2-12.7 3.3-9.7.1 1.2 1 3.1 2 4.1 1.1 1.1 1.7 2.1 1.5 2.3-.2.3.6.4 1.9.4 1.9-.1 2.2.3 1.9 2.9l-.4 3 2.7-2.5c3-2.9 4.1-2 5.1 4.3.4 2.1.9 3.6 1.3 3.5.3-.2 1.9-1 3.4-1.8 2.7-1.3 2.8-1.7 2.3-5.5-1.6-9.8-6.9-16.5-25.8-31.8l-5.8-4.7zm-96.4 5c-2.1 3.8-5.5 8.9-7.5 11.3-8.8 10.7-16.5 21.9-17.5 25.3-.7 2.2 1.1 2.4 10.1 1.5.8-.1 1.1-1.1.7-3.1-.6-3 .8-4.2 2.2-1.9.4.7 1.2.1 2-1.7l1.2-2.9.1 3.3c.1 4.7 2.1 3 2.1-1.9 0-3.8 2.2-5.6 3.3-2.6.3.6.6.1.6-1.3.2-3.4 2.1-.6 2.1 3 0 2.4.3 2.6 3.6 2.2l3.6-.4-.7-17.1c-.9-22-1-22.2-5.9-13.7m-1028.4-.9c.2 1.2.8 2.4 1.5 2.6.7.3.9-.3.6-1.7-.8-2.9-2.5-3.7-2.1-.9m984.8 5.8c-.7 1.5-.7 2.1 0 2.1 1.2 0 2.5-2.8 1.7-3.6-.3-.3-1 .4-1.7 1.5m-232.8 13.4c-1.5 3.5-1.5 4.7-.2 4.7 1.4 0 2.2-2.4 1.8-5.2-.4-2.2-.5-2.2-1.6.5m-77.3 8.2c-1.3 1.4-3.7 3.3-5.4 4.3l-3 1.6 5.3.7c5.8.8 8.2 2.2 8.2 5 0 1.5.7 1.9 3.6 1.9 2.8 0 3.4-.3 2.6-1.2-.6-.7-2.2-4.3-3.7-8-3-7.4-4.1-8.1-7.6-4.3m-268.2 2.9c-.9 2.7-1.5 5.2-1.2 5.4.8.8 3.6-6.8 3.3-8.6-.2-1-1.1.5-2.1 3.2m969.5 2.1c-1.4 4-1.6 5.2-.6 4.4.8-.6 1.4-1.8 1.4-2.5 0-.8.9-1.4 2.1-1.4 1.5 0 1.9-.4 1.5-1.6-.3-.9-.6-2.2-.6-3 0-3.1-1.8-1.1-3.8 4.1m145-1.5c-1.8 2.9-1.5 3.6.8 1.5 2-1.8 2.6-3.5 1.2-3.5-.4 0-1.3.9-2 2m-1329.9.4c.3.8.9 3.1 1.3 5 .8 4.8 2.1 4.6 2.6-.5.3-3.1 0-4.3-1.3-5-2.5-1.3-3.2-1.1-2.6.5m-639.3 1c0 .8-.3 2.3-.7 3.3-.6 1.6-.5 1.6 1 .4 1.9-1.5 2.2-3.7.7-4.6-.5-.3-1 0-1 .9m715.5 2.7c-.7 3.2.4 4.9 3.5 4.9 1.1 0 1.1-.3.2-1.2-.7-.7-1.2-2.5-1.2-4 0-3.8-1.7-3.6-2.5.3m312.1 1.4c-.3.9 0 1.5.9 1.5.8 0 1.5-.7 1.5-1.5s-.4-1.5-.9-1.5-1.1.7-1.5 1.5"/></svg>